<mxfile host="app.diagrams.net" modified="2021-01-20T10:17:47.334Z" agent="5.0 (Macintosh; Intel Mac OS X 10_15_5) AppleWebKit/537.36 (KHTML, like Gecko) Chrome/87.0.4280.141 Safari/537.36" etag="4E3hfDeWN7YlV_EwM2us" version="14.1.9" type="github">
  <diagram id="C5RBs43oDa-KdzZeNtuy" name="Page-1">
    <mxGraphModel dx="1426" dy="718" grid="1" gridSize="10" guides="1" tooltips="1" connect="1" arrows="1" fold="1" page="1" pageScale="1" pageWidth="827" pageHeight="1169" math="0" shadow="0">
      <root>
        <mxCell id="WIyWlLk6GJQsqaUBKTNV-0" />
        <mxCell id="WIyWlLk6GJQsqaUBKTNV-1" parent="WIyWlLk6GJQsqaUBKTNV-0" />
        <mxCell id="FpXePf8qNYIzedHJ7Y4f-25" style="edgeStyle=orthogonalEdgeStyle;rounded=0;orthogonalLoop=1;jettySize=auto;html=1;entryX=0;entryY=0.5;entryDx=0;entryDy=0;" edge="1" parent="WIyWlLk6GJQsqaUBKTNV-1" source="FpXePf8qNYIzedHJ7Y4f-22" target="FpXePf8qNYIzedHJ7Y4f-23">
          <mxGeometry relative="1" as="geometry" />
        </mxCell>
        <mxCell id="FpXePf8qNYIzedHJ7Y4f-26" style="edgeStyle=orthogonalEdgeStyle;rounded=0;orthogonalLoop=1;jettySize=auto;html=1;entryX=0;entryY=0.5;entryDx=0;entryDy=0;" edge="1" parent="WIyWlLk6GJQsqaUBKTNV-1" source="FpXePf8qNYIzedHJ7Y4f-22" target="FpXePf8qNYIzedHJ7Y4f-24">
          <mxGeometry relative="1" as="geometry" />
        </mxCell>
        <mxCell id="FpXePf8qNYIzedHJ7Y4f-40" style="edgeStyle=orthogonalEdgeStyle;rounded=0;orthogonalLoop=1;jettySize=auto;html=1;entryX=0;entryY=0.5;entryDx=0;entryDy=0;" edge="1" parent="WIyWlLk6GJQsqaUBKTNV-1" source="FpXePf8qNYIzedHJ7Y4f-22" target="FpXePf8qNYIzedHJ7Y4f-39">
          <mxGeometry relative="1" as="geometry" />
        </mxCell>
        <mxCell id="FpXePf8qNYIzedHJ7Y4f-22" value="GeneralVerticalOneStepViewBehavior" style="html=1;" vertex="1" parent="WIyWlLk6GJQsqaUBKTNV-1">
          <mxGeometry x="100" y="490" width="220" height="80" as="geometry" />
        </mxCell>
        <mxCell id="FpXePf8qNYIzedHJ7Y4f-28" style="edgeStyle=orthogonalEdgeStyle;rounded=0;orthogonalLoop=1;jettySize=auto;html=1;" edge="1" parent="WIyWlLk6GJQsqaUBKTNV-1" source="FpXePf8qNYIzedHJ7Y4f-23" target="FpXePf8qNYIzedHJ7Y4f-27">
          <mxGeometry relative="1" as="geometry" />
        </mxCell>
        <mxCell id="FpXePf8qNYIzedHJ7Y4f-23" value="VerticalBottomViewBehavior" style="html=1;" vertex="1" parent="WIyWlLk6GJQsqaUBKTNV-1">
          <mxGeometry x="414" y="560" width="220" height="70" as="geometry" />
        </mxCell>
        <mxCell id="FpXePf8qNYIzedHJ7Y4f-24" value="VerticalSketchViewBehavior" style="html=1;" vertex="1" parent="WIyWlLk6GJQsqaUBKTNV-1">
          <mxGeometry x="691" y="430" width="220" height="70" as="geometry" />
        </mxCell>
        <mxCell id="FpXePf8qNYIzedHJ7Y4f-27" value="VerticalSketchViewBehavior" style="html=1;" vertex="1" parent="WIyWlLk6GJQsqaUBKTNV-1">
          <mxGeometry x="691" y="560" width="220" height="70" as="geometry" />
        </mxCell>
        <mxCell id="FpXePf8qNYIzedHJ7Y4f-30" style="edgeStyle=orthogonalEdgeStyle;rounded=0;orthogonalLoop=1;jettySize=auto;html=1;entryX=0;entryY=0.5;entryDx=0;entryDy=0;" edge="1" parent="WIyWlLk6GJQsqaUBKTNV-1" source="FpXePf8qNYIzedHJ7Y4f-32" target="FpXePf8qNYIzedHJ7Y4f-34">
          <mxGeometry relative="1" as="geometry" />
        </mxCell>
        <mxCell id="FpXePf8qNYIzedHJ7Y4f-31" style="edgeStyle=orthogonalEdgeStyle;rounded=0;orthogonalLoop=1;jettySize=auto;html=1;" edge="1" parent="WIyWlLk6GJQsqaUBKTNV-1" source="FpXePf8qNYIzedHJ7Y4f-32" target="FpXePf8qNYIzedHJ7Y4f-35">
          <mxGeometry relative="1" as="geometry" />
        </mxCell>
        <mxCell id="FpXePf8qNYIzedHJ7Y4f-38" style="edgeStyle=orthogonalEdgeStyle;rounded=0;orthogonalLoop=1;jettySize=auto;html=1;entryX=0;entryY=0.5;entryDx=0;entryDy=0;" edge="1" parent="WIyWlLk6GJQsqaUBKTNV-1" source="FpXePf8qNYIzedHJ7Y4f-32" target="FpXePf8qNYIzedHJ7Y4f-37">
          <mxGeometry relative="1" as="geometry" />
        </mxCell>
        <mxCell id="FpXePf8qNYIzedHJ7Y4f-32" value="GeneralVerticalViewBehavior" style="html=1;" vertex="1" parent="WIyWlLk6GJQsqaUBKTNV-1">
          <mxGeometry x="100" y="785" width="220" height="80" as="geometry" />
        </mxCell>
        <mxCell id="FpXePf8qNYIzedHJ7Y4f-33" style="edgeStyle=orthogonalEdgeStyle;rounded=0;orthogonalLoop=1;jettySize=auto;html=1;" edge="1" parent="WIyWlLk6GJQsqaUBKTNV-1" source="FpXePf8qNYIzedHJ7Y4f-34" target="FpXePf8qNYIzedHJ7Y4f-36">
          <mxGeometry relative="1" as="geometry" />
        </mxCell>
        <mxCell id="FpXePf8qNYIzedHJ7Y4f-34" value="VerticalBottomViewBehavior" style="html=1;" vertex="1" parent="WIyWlLk6GJQsqaUBKTNV-1">
          <mxGeometry x="414" y="1000" width="220" height="70" as="geometry" />
        </mxCell>
        <mxCell id="FpXePf8qNYIzedHJ7Y4f-47" style="edgeStyle=orthogonalEdgeStyle;rounded=0;orthogonalLoop=1;jettySize=auto;html=1;entryX=0;entryY=0.5;entryDx=0;entryDy=0;" edge="1" parent="WIyWlLk6GJQsqaUBKTNV-1" source="FpXePf8qNYIzedHJ7Y4f-35" target="FpXePf8qNYIzedHJ7Y4f-45">
          <mxGeometry relative="1" as="geometry" />
        </mxCell>
        <mxCell id="FpXePf8qNYIzedHJ7Y4f-48" style="edgeStyle=orthogonalEdgeStyle;rounded=0;orthogonalLoop=1;jettySize=auto;html=1;entryX=-0.018;entryY=0.657;entryDx=0;entryDy=0;entryPerimeter=0;" edge="1" parent="WIyWlLk6GJQsqaUBKTNV-1" source="FpXePf8qNYIzedHJ7Y4f-35" target="FpXePf8qNYIzedHJ7Y4f-46">
          <mxGeometry relative="1" as="geometry" />
        </mxCell>
        <mxCell id="FpXePf8qNYIzedHJ7Y4f-35" value="GeneralVerticalMulView" style="html=1;" vertex="1" parent="WIyWlLk6GJQsqaUBKTNV-1">
          <mxGeometry x="414" y="865" width="216" height="70" as="geometry" />
        </mxCell>
        <mxCell id="FpXePf8qNYIzedHJ7Y4f-36" value="VerticalSketchViewBehavior" style="html=1;" vertex="1" parent="WIyWlLk6GJQsqaUBKTNV-1">
          <mxGeometry x="710" y="1000" width="220" height="70" as="geometry" />
        </mxCell>
        <mxCell id="FpXePf8qNYIzedHJ7Y4f-42" style="edgeStyle=orthogonalEdgeStyle;rounded=0;orthogonalLoop=1;jettySize=auto;html=1;entryX=0;entryY=0.5;entryDx=0;entryDy=0;" edge="1" parent="WIyWlLk6GJQsqaUBKTNV-1" source="FpXePf8qNYIzedHJ7Y4f-37" target="FpXePf8qNYIzedHJ7Y4f-41">
          <mxGeometry relative="1" as="geometry">
            <mxPoint x="690" y="725" as="targetPoint" />
          </mxGeometry>
        </mxCell>
        <mxCell id="FpXePf8qNYIzedHJ7Y4f-43" style="edgeStyle=orthogonalEdgeStyle;rounded=0;orthogonalLoop=1;jettySize=auto;html=1;exitX=1;exitY=0.5;exitDx=0;exitDy=0;entryX=0;entryY=0.5;entryDx=0;entryDy=0;" edge="1" parent="WIyWlLk6GJQsqaUBKTNV-1" source="FpXePf8qNYIzedHJ7Y4f-37" target="FpXePf8qNYIzedHJ7Y4f-44">
          <mxGeometry relative="1" as="geometry">
            <mxPoint x="700" y="760" as="targetPoint" />
          </mxGeometry>
        </mxCell>
        <mxCell id="FpXePf8qNYIzedHJ7Y4f-37" value="GeneralVerticalDivView" style="html=1;" vertex="1" parent="WIyWlLk6GJQsqaUBKTNV-1">
          <mxGeometry x="400" y="690" width="230" height="70" as="geometry" />
        </mxCell>
        <mxCell id="FpXePf8qNYIzedHJ7Y4f-39" value="WhiteBoardItemAnswer" style="html=1;" vertex="1" parent="WIyWlLk6GJQsqaUBKTNV-1">
          <mxGeometry x="691" y="320" width="220" height="70" as="geometry" />
        </mxCell>
        <mxCell id="FpXePf8qNYIzedHJ7Y4f-41" value="VerticalSketchViewBehavior" style="html=1;" vertex="1" parent="WIyWlLk6GJQsqaUBKTNV-1">
          <mxGeometry x="700" y="650" width="220" height="70" as="geometry" />
        </mxCell>
        <mxCell id="FpXePf8qNYIzedHJ7Y4f-44" value="WhiteBoardItemAnswer" style="html=1;" vertex="1" parent="WIyWlLk6GJQsqaUBKTNV-1">
          <mxGeometry x="700" y="730" width="220" height="70" as="geometry" />
        </mxCell>
        <mxCell id="FpXePf8qNYIzedHJ7Y4f-45" value="VerticalSketchViewBehavior" style="html=1;" vertex="1" parent="WIyWlLk6GJQsqaUBKTNV-1">
          <mxGeometry x="700" y="810" width="220" height="70" as="geometry" />
        </mxCell>
        <mxCell id="FpXePf8qNYIzedHJ7Y4f-46" value="WhiteBoardItemAnswer" style="html=1;" vertex="1" parent="WIyWlLk6GJQsqaUBKTNV-1">
          <mxGeometry x="700" y="890" width="220" height="70" as="geometry" />
        </mxCell>
      </root>
    </mxGraphModel>
  </diagram>
</mxfile>
